<?xml version="1.0" encoding="utf-8"?>
<!-- Generator: Adobe Illustrator 24.3.0, SVG Export Plug-In . SVG Version: 6.00 Build 0)  -->
<svg version="1.1" id="Crypto_Logo" xmlns="http://www.w3.org/2000/svg" xmlns:xlink="http://www.w3.org/1999/xlink" x="0px"
	 y="0px" viewBox="0 0 1280 1024" style="enable-background:new 0 0 1280 1024;" xml:space="preserve">
<style type="text/css">
	.st0{fill:#CBA00C;}
	.st1{fill:#FFD700;}
	.st2{fill:#090908;}
	.st3{fill:#4A4A55;}
</style>
<g id="Components">
	<polygon id="Bottom_C" points="539.22,512.12 539.22,570.24 646.17,632.86 740.78,578.96 712.71,529.46 648.25,567.47 
		596.04,538.16 595.65,477.86 	"/>
	<polygon class="st0" points="539.22,443.83 595.65,477.86 539.22,512.14 	"/>
	<polyline class="st1" points="539.22,443.83 595.65,477.84 648.18,448.18 712.39,484.54 742.82,436.98 648.95,380.87 
		539.22,443.83 	"/>
	<polygon class="st2" points="640,267.1 429.98,389.63 429.98,634.36 640,756.9 640,717.24 464.23,614.7 464.23,409.29 640,306.75 
		815.77,409.29 815.77,614.44 850.02,634.36 850.02,389.63 	"/>
	<polyline class="st3" points="640,717.24 815.77,614.44 850.02,634.36 640,756.9 	"/>
</g>
</svg>
